<svg xmlns="http://www.w3.org/2000/svg" viewBox="0 0 600 400" width="600" height="400">
  <defs>
    <style>
      @import url('https://fonts.googleapis.com/css2?family=Inter:wght@400;500;600&amp;display=swap');
      text { font-family: 'Inter', -apple-system, BlinkMacSystemFont, 'Segoe UI', sans-serif; }
    </style>

    <!-- Glow filter for dots -->
    <filter id="glow" x="-50%" y="-50%" width="200%" height="200%">
      <feGaussianBlur in="SourceGraphic" stdDeviation="3" result="blur"/>
      <feMerge>
        <feMergeNode in="blur"/>
        <feMergeNode in="SourceGraphic"/>
      </feMerge>
    </filter>

    <!-- Subtle outer glow for dots -->
    <filter id="dotGlow" x="-100%" y="-100%" width="300%" height="300%">
      <feGaussianBlur in="SourceAlpha" stdDeviation="4" result="blur"/>
      <feFlood flood-color="#E8632B" flood-opacity="0.35" result="color"/>
      <feComposite in="color" in2="blur" operator="in" result="shadow"/>
      <feMerge>
        <feMergeNode in="shadow"/>
        <feMergeNode in="SourceGraphic"/>
      </feMerge>
    </filter>

    <!-- Gradient for network lines -->
    <linearGradient id="lineGrad1" x1="0%" y1="0%" x2="100%" y2="0%">
      <stop offset="0%" stop-color="#2A8F7D" stop-opacity="0.15"/>
      <stop offset="50%" stop-color="#2A8F7D" stop-opacity="0.5"/>
      <stop offset="100%" stop-color="#2A8F7D" stop-opacity="0.15"/>
    </linearGradient>

    <!-- Pulse animation for dots -->
    <radialGradient id="dotCenter" cx="50%" cy="50%" r="50%">
      <stop offset="0%" stop-color="#FF8C5A"/>
      <stop offset="100%" stop-color="#E8632B"/>
    </radialGradient>
  </defs>

  <!-- Background -->
  <rect width="600" height="400" fill="transparent"/>

  <!-- Continental US simplified outline -->
  <g transform="translate(42, 38) scale(0.86)">
    <path d="
      M 48,95
      L 52,88 58,82 65,78 72,75 80,72 88,70 95,68
      L 102,65 108,62 115,58 120,55 128,52 135,50 142,48
      L 150,46 158,44 165,42 172,41 180,40 188,39 195,38
      L 203,38 210,37 218,36 225,35 232,35 240,35 248,35
      L 255,36 262,37 270,38 278,40 285,42 292,44 298,46
      L 305,48 312,50 318,52 325,55 332,58 338,60 345,63
      L 352,66 358,68 365,70 372,72 378,74 385,76 390,78
      L 395,80 400,82 405,84 410,86 415,88 420,90
      L 425,88 430,84 435,80 440,76 445,72 450,68
      L 455,65 460,62 465,60 470,58 475,56 480,55
      L 485,54 490,53 495,52 500,51 505,50 510,48
      L 515,46 518,44 521,42 524,40 527,38 530,37
      L 534,36 538,36 542,38 545,42 548,46 550,50
      L 552,55 554,60 555,65 556,70 557,76
      L 558,82 559,88 560,94 560,100
      L 559,105 558,110 556,115 554,120 552,124
      L 550,128 548,132 546,136 544,140 542,144
      L 540,148 538,152 536,156 534,160 533,164
      L 532,168 532,172 533,176 534,180 536,184
      L 538,186 540,188 542,190 544,192
      L 546,196 548,200 549,204 550,208
      L 550,212 549,216 548,220 546,224
      L 545,228 544,232 543,236 542,240
      L 540,244 538,248 536,250 534,252
      L 530,256 526,258 522,260 518,262
      L 514,264 510,266 506,268 502,270 498,272
      L 494,273 490,274 486,274 482,273
      L 478,272 474,270 470,268 466,266
      L 462,264 458,262 454,261 450,260
      L 446,259 442,258 438,258 434,258
      L 430,259 426,260 422,262 418,264
      L 414,266 410,268 406,272 402,276
      L 398,280 395,284 392,288 390,292
      L 388,296 386,298 382,300 378,302
      L 374,303 370,304 366,304 362,303
      L 358,302 354,300 350,298 346,296
      L 342,294 338,292 334,290 330,288
      L 326,287 322,286 318,286 314,286
      L 310,287 306,288 302,290 298,292
      L 294,295 290,298 286,300 282,302
      L 278,304 274,305 270,305 266,304
      L 262,302 258,300 255,296 252,292
      L 250,288 248,284 246,280 244,276
      L 242,272 240,268 238,264 236,260
      L 234,256 232,252 230,248 228,244
      L 226,240 224,236 222,232 220,228
      L 218,224 216,220 214,216 212,212
      L 210,210 208,208 205,206 202,205
      L 198,204 194,204 190,205 186,206
      L 182,208 178,210 174,212 170,215
      L 166,218 162,220 158,222 154,224
      L 150,226 146,228 142,229 138,230
      L 134,231 130,231 126,230 122,228
      L 118,226 114,224 110,222 106,220
      L 102,218 98,216 94,214 90,212
      L 86,210 82,208 78,205 74,202
      L 70,199 66,196 62,192 58,188
      L 55,184 52,180 50,176 48,172
      L 46,168 44,164 43,160 42,156
      L 42,152 42,148 43,144 44,140
      L 45,136 46,132 47,128 48,124
      L 48,120 48,116 48,112 48,108
      L 48,104 48,100 48,95
      Z
    " fill="#1B2541" fill-opacity="0.88" stroke="#2A3A5C" stroke-width="1.2" stroke-linejoin="round"/>

    <!-- Florida peninsula -->
    <path d="
      M 434,258 L 438,262 442,268 446,274 450,280
      L 454,286 458,292 460,296 462,300 464,304
      L 466,308 467,312 468,316 468,320
      L 467,323 465,326 462,328 459,329 456,328
      L 453,326 451,323 449,320 448,316
      L 446,312 444,308 442,304 440,300
      L 438,296 436,292 434,288 432,284
      L 430,280 428,276 426,272 424,268
      L 422,264 420,262
    " fill="#1B2541" fill-opacity="0.88" stroke="#2A3A5C" stroke-width="1.2" stroke-linejoin="round"/>

    <!-- Michigan upper -->
    <path d="
      M 370,72 L 374,68 378,65 382,63 386,62
      L 390,62 394,63 396,66 398,70 398,74
      L 396,78 394,80 390,82 386,82 382,80
      L 378,78 374,76 370,74 370,72 Z
    " fill="#1B2541" fill-opacity="0.88" stroke="#2A3A5C" stroke-width="1.2" stroke-linejoin="round"/>

    <!-- Internal state-like detail lines for realism -->
    <g stroke="#2A3A5C" stroke-width="0.5" stroke-opacity="0.4" fill="none">
      <!-- Vertical divisions -->
      <line x1="150" y1="46" x2="148" y2="230"/>
      <line x1="220" y1="36" x2="218" y2="228"/>
      <line x1="290" y1="44" x2="288" y2="300"/>
      <line x1="360" y1="66" x2="358" y2="302"/>
      <line x1="430" y1="88" x2="432" y2="258"/>
      <line x1="500" y1="51" x2="498" y2="272"/>
      <!-- Horizontal divisions -->
      <line x1="48" y1="130" x2="560" y2="130"/>
      <line x1="48" y1="180" x2="540" y2="190"/>
      <line x1="100" y1="220" x2="500" y2="262"/>
    </g>
  </g>

  <!-- Network connection lines (teal, curved) -->
  <g fill="none" stroke-linecap="round">
    <!-- LA to Chicago -->
    <path d="M 115,215 Q 250,140 360,128" stroke="#2A8F7D" stroke-width="1.2" stroke-opacity="0.4" stroke-dasharray="4,3"/>
    <!-- Chicago to NYC -->
    <path d="M 360,128 Q 430,100 500,105" stroke="#2A8F7D" stroke-width="1.2" stroke-opacity="0.4" stroke-dasharray="4,3"/>
    <!-- NYC to Boston -->
    <path d="M 500,105 Q 510,85 518,82" stroke="#2A8F7D" stroke-width="1.2" stroke-opacity="0.4" stroke-dasharray="4,3"/>
    <!-- Chicago to Miami -->
    <path d="M 360,128 Q 410,210 442,298" stroke="#2A8F7D" stroke-width="1.2" stroke-opacity="0.4" stroke-dasharray="4,3"/>
    <!-- NYC to Miami -->
    <path d="M 500,105 Q 490,200 442,298" stroke="#2A8F7D" stroke-width="1.2" stroke-opacity="0.4" stroke-dasharray="4,3"/>
    <!-- LA to Miami -->
    <path d="M 115,215 Q 280,310 442,298" stroke="#2A8F7D" stroke-width="1" stroke-opacity="0.25" stroke-dasharray="4,3"/>
    <!-- LA to NYC -->
    <path d="M 115,215 Q 300,90 500,105" stroke="#2A8F7D" stroke-width="1" stroke-opacity="0.25" stroke-dasharray="4,3"/>
    <!-- Boston to Miami -->
    <path d="M 518,82 Q 530,190 442,298" stroke="#2A8F7D" stroke-width="1" stroke-opacity="0.25" stroke-dasharray="4,3"/>
    <!-- LA to Boston -->
    <path d="M 115,215 Q 310,30 518,82" stroke="#2A8F7D" stroke-width="0.8" stroke-opacity="0.2" stroke-dasharray="4,3"/>
    <!-- Chicago to Boston -->
    <path d="M 360,128 Q 440,80 518,82" stroke="#2A8F7D" stroke-width="1" stroke-opacity="0.3" stroke-dasharray="4,3"/>
  </g>

  <!-- City markers and labels -->

  <!-- Los Angeles -->
  <g>
    <circle cx="115" cy="215" r="8" fill="#E8632B" fill-opacity="0.15" stroke="none"/>
    <circle cx="115" cy="215" r="5" fill="url(#dotCenter)" filter="url(#dotGlow)"/>
    <circle cx="115" cy="215" r="2" fill="#fff" fill-opacity="0.6"/>
    <text x="96" y="236" font-size="9" font-weight="500" fill="#ffffff" fill-opacity="0.95" text-anchor="middle">Los Angeles</text>
    <text x="96" y="246" font-size="7.5" font-weight="400" fill="#ffffff" fill-opacity="0.6" text-anchor="middle">Times</text>
  </g>

  <!-- Chicago -->
  <g>
    <circle cx="360" cy="128" r="8" fill="#E8632B" fill-opacity="0.15" stroke="none"/>
    <circle cx="360" cy="128" r="5" fill="url(#dotCenter)" filter="url(#dotGlow)"/>
    <circle cx="360" cy="128" r="2" fill="#fff" fill-opacity="0.6"/>
    <text x="360" y="118" font-size="9" font-weight="500" fill="#ffffff" fill-opacity="0.95" text-anchor="middle">Chicago</text>
    <text x="360" y="108" font-size="7.5" font-weight="400" fill="#ffffff" fill-opacity="0.6" text-anchor="middle">Tribune</text>
  </g>

  <!-- New York -->
  <g>
    <circle cx="500" cy="105" r="8" fill="#E8632B" fill-opacity="0.15" stroke="none"/>
    <circle cx="500" cy="105" r="5" fill="url(#dotCenter)" filter="url(#dotGlow)"/>
    <circle cx="500" cy="105" r="2" fill="#fff" fill-opacity="0.6"/>
    <text x="492" y="125" font-size="9" font-weight="500" fill="#ffffff" fill-opacity="0.95" text-anchor="end">NY Daily</text>
    <text x="492" y="135" font-size="7.5" font-weight="400" fill="#ffffff" fill-opacity="0.6" text-anchor="end">News</text>
  </g>

  <!-- Boston -->
  <g>
    <circle cx="518" cy="82" r="8" fill="#E8632B" fill-opacity="0.15" stroke="none"/>
    <circle cx="518" cy="82" r="5" fill="url(#dotCenter)" filter="url(#dotGlow)"/>
    <circle cx="518" cy="82" r="2" fill="#fff" fill-opacity="0.6"/>
    <text x="536" y="78" font-size="9" font-weight="500" fill="#ffffff" fill-opacity="0.95" text-anchor="start">Boston</text>
    <text x="536" y="88" font-size="7.5" font-weight="400" fill="#ffffff" fill-opacity="0.6" text-anchor="start">Herald</text>
  </g>

  <!-- Miami -->
  <g>
    <circle cx="442" cy="298" r="8" fill="#E8632B" fill-opacity="0.15" stroke="none"/>
    <circle cx="442" cy="298" r="5" fill="url(#dotCenter)" filter="url(#dotGlow)"/>
    <circle cx="442" cy="298" r="2" fill="#fff" fill-opacity="0.6"/>
    <text x="460" y="296" font-size="9" font-weight="500" fill="#ffffff" fill-opacity="0.95" text-anchor="start">Miami</text>
    <text x="460" y="306" font-size="7.5" font-weight="400" fill="#ffffff" fill-opacity="0.6" text-anchor="start">Herald</text>
  </g>

  <!-- Bottom left caption -->
  <text x="28" y="378" font-size="10" font-weight="600" fill="#ffffff" fill-opacity="0.7" letter-spacing="0.5">Top sites on our distribution network</text>
</svg>